<?xml version="1.0" standalone="no"?>
<!DOCTYPE svg PUBLIC "-//W3C//DTD SVG 20010904//EN"
 "http://www.w3.org/TR/2001/REC-SVG-20010904/DTD/svg10.dtd">
<svg version="1.0" xmlns="http://www.w3.org/2000/svg"
 width="271.000000pt" height="292.000000pt" viewBox="0 0 271.000000 292.000000"
 preserveAspectRatio="xMidYMid meet">

<g transform="translate(0.000000,292.000000) scale(0.100000,-0.100000)"
fill="#000000" stroke="none">
<path d="M1205 2849 c-237 -7 -375 -18 -488 -38 -173 -31 -333 -97 -428 -178
-99 -84 -183 -236 -200 -363 -6 -40 -9 -381 -7 -817 3 -741 3 -749 25 -813 52
-153 186 -302 328 -365 200 -88 478 -127 920 -127 270 0 422 10 636 42 302 46
480 150 582 343 25 48 44 94 41 102 -4 8 -2 15 4 15 5 0 15 20 21 44 14 56 14
146 1 146 -5 0 -10 23 -10 50 0 49 -12 66 -24 34 -8 -22 -8 -59 2 -68 11 -12
11 -89 -1 -113 -7 -17 -7 -30 1 -48 10 -21 8 -28 -7 -42 -22 -21 -41 -56 -46
-85 -5 -26 -24 -48 -41 -48 -8 0 -14 -4 -14 -10 0 -5 -7 -10 -15 -10 -8 0 -15
-6 -15 -14 0 -8 -7 -16 -15 -20 -8 -3 -15 -15 -15 -26 0 -11 -6 -20 -14 -20
-8 0 -33 -11 -57 -25 -32 -18 -46 -21 -52 -12 -6 8 -7 4 -4 -10 6 -27 -41 -67
-67 -57 -27 10 -18 29 22 49 59 28 20 29 -71 1 -77 -24 -154 -37 -327 -54
-139 -13 -486 -7 -625 12 -132 17 -254 52 -311 87 -46 28 -113 104 -135 153
-10 24 -27 76 -36 117 -16 68 -18 139 -16 829 1 834 0 824 65 956 18 37 47 79
65 93 38 30 40 37 13 44 -13 3 -20 0 -20 -9 0 -8 -6 -14 -13 -14 -12 0 -47
-34 -47 -47 0 -3 -11 -20 -24 -38 -33 -43 -53 -93 -70 -179 -13 -61 -16 -197
-17 -828 0 -415 2 -772 6 -794 13 -83 50 -204 62 -204 7 0 13 -7 13 -15 0 -8
12 -26 28 -40 34 -32 157 -101 197 -111 17 -4 36 -11 43 -17 7 -5 38 -11 69
-13 31 -2 59 -7 62 -13 3 -5 61 -12 128 -16 107 -7 123 -10 128 -26 6 -16 18
-19 91 -21 46 -1 96 -2 112 -2 20 -1 28 4 30 21 3 21 0 22 -85 26 l-88 3 100
2 c55 1 117 -3 138 -9 26 -7 66 -7 128 0 50 6 99 6 112 2 22 -9 22 -9 -3 -14
-14 -3 -73 -11 -132 -17 -59 -6 -121 -16 -138 -21 -18 -7 -80 -9 -158 -6 -259
11 -520 27 -588 37 -38 5 -88 10 -111 10 -25 0 -43 5 -43 11 0 8 -13 9 -41 5
-44 -7 -91 4 -151 35 -20 10 -44 19 -53 19 -9 0 -18 7 -21 15 -4 8 -14 15 -23
15 -9 0 -22 5 -29 12 -7 7 -12 8 -12 4 0 -5 -11 8 -25 28 -22 32 -23 39 -11
51 15 15 11 55 -7 67 -6 3 -21 2 -34 -3 -22 -8 -28 -2 -24 24 1 10 -22 4 -31
-8 -5 -6 -8 -5 -8 3 0 8 13 19 30 25 37 14 43 30 22 55 -9 11 -25 30 -35 42
-10 11 -15 25 -12 30 3 5 -5 11 -17 13 l-23 4 23 2 c21 1 33 31 12 31 -6 0
-10 261 -10 726 0 422 -4 754 -10 795 -12 82 -27 122 -64 165 l-26 32 35 21
c19 11 35 25 35 31 0 5 7 10 16 10 11 0 14 -6 9 -21 -5 -15 -4 -19 4 -15 16
10 14 35 -4 52 -17 17 -20 34 -6 34 7 0 45 27 111 80 32 26 64 22 68 -7 6 -39
23 -25 20 15 -3 34 0 39 32 54 19 10 49 18 65 18 19 0 35 7 43 20 7 12 23 20
40 20 15 0 32 4 38 9 13 13 210 23 477 25 206 1 229 3 238 19 10 18 54 24 63
8 4 -5 19 -4 36 2 25 10 33 9 40 -3 7 -10 10 -11 10 -2 0 10 5 9 23 -2 24 -15
80 -19 71 -5 -3 5 2 9 10 9 8 0 18 -5 21 -10 4 -6 16 -8 27 -4 13 4 24 1 29
-7 8 -12 10 -12 18 0 6 9 11 10 15 2 4 -6 11 -9 16 -6 5 3 16 -2 24 -11 12
-11 20 -13 29 -6 7 5 35 8 62 6 48 -4 116 -7 142 -5 7 1 10 8 6 17 -3 9 -16
14 -32 13 -14 -2 -35 0 -46 4 -11 3 -85 11 -165 18 -80 6 -165 14 -190 16 -74
9 -192 10 -445 2z m-985 -509 c0 -15 0 -17 10 -51 5 -17 10 -386 10 -820 1
-433 4 -798 7 -809 4 -15 8 -18 13 -10 4 7 10 8 13 3 10 -16 -43 -64 -66 -61
-22 3 -29 28 -42 148 -7 69 -3 1476 4 1523 4 26 6 47 4 47 -2 0 1 9 7 20 11
21 40 28 40 10z m1950 -2030 c0 -5 -12 -10 -26 -10 -14 0 -23 4 -19 10 3 6 15
10 26 10 10 0 19 -4 19 -10z m-61 -19 c11 -7 7 -13 -20 -23 -34 -14 -79 -13
-79 2 0 9 46 28 70 29 8 0 21 -3 29 -8z"/>
<path d="M2100 2766 c0 -13 48 -39 66 -35 5 1 18 1 29 0 17 -1 18 -3 5 -11
-16 -10 -8 -14 23 -10 29 3 87 -21 87 -35 0 -9 8 -12 21 -10 21 4 49 -15 49
-34 0 -6 6 -8 13 -5 15 5 77 -47 77 -65 0 -7 7 -14 15 -17 8 -4 13 -10 10 -14
-3 -4 2 -13 10 -20 8 -7 15 -9 15 -4 0 4 7 -1 15 -12 14 -19 14 -18 15 4 0 30
-142 172 -195 194 -50 21 -88 33 -97 30 -5 -1 -8 5 -8 13 0 8 -4 15 -10 15
-19 0 -25 2 -45 16 -26 19 -95 19 -95 0z"/>
<path d="M1308 2665 c-182 -20 -263 -41 -333 -88 -59 -39 -85 -63 -85 -79 0
-14 17 -8 41 15 13 12 42 30 64 41 22 10 49 23 59 28 18 9 62 18 174 34 28 5
42 3 42 -5 0 -17 27 -13 34 5 5 14 18 16 76 12 39 -3 70 -1 70 3 0 17 546 -3
580 -21 8 -4 41 -11 72 -15 32 -4 62 -13 68 -21 6 -7 17 -11 25 -8 31 12 135
-78 171 -147 44 -85 46 -134 45 -909 -1 -691 -6 -834 -29 -864 -6 -6 -13 -26
-17 -44 -8 -37 -50 -92 -71 -92 -8 0 -11 -6 -8 -15 4 -8 1 -15 -5 -15 -7 0
-22 -10 -35 -23 -12 -12 -33 -27 -47 -34 l-24 -12 23 0 c62 -2 177 91 211 169
49 115 51 150 48 950 -3 514 -7 760 -15 793 -31 129 -98 221 -197 271 -146 72
-603 107 -937 71z"/>
<path d="M960 2635 c0 -8 5 -15 10 -15 6 0 10 7 10 15 0 8 -4 15 -10 15 -5 0
-10 -7 -10 -15z"/>
<path d="M730 2601 c0 -10 26 -9 36 2 4 4 -2 7 -14 7 -12 0 -22 -4 -22 -9z"/>
<path d="M1943 2533 c9 -2 23 -2 30 0 6 3 -1 5 -18 5 -16 0 -22 -2 -12 -5z"/>
<path d="M1460 2510 c-11 -21 5 -60 25 -60 5 0 63 -1 128 -3 131 -3 143 2 125
55 l-10 28 -129 0 c-118 0 -129 -2 -139 -20z"/>
<path d="M970 2499 c0 -5 5 -7 10 -4 6 3 10 8 10 11 0 2 -4 4 -10 4 -5 0 -10
-5 -10 -11z"/>
<path d="M862 2468 c-15 -15 -16 -55 0 -64 8 -5 9 0 5 15 -3 14 0 24 9 28 15
5 20 33 6 33 -4 0 -13 -5 -20 -12z"/>
<path d="M2555 2468 c-4 -10 6 -40 23 -71 35 -64 49 -117 32 -117 -10 0 -10
-3 0 -15 8 -10 9 -23 3 -42 -12 -39 -10 -166 2 -170 7 -2 12 24 13 69 2 40 8
75 14 79 6 4 8 23 4 50 -4 24 -9 63 -12 86 -3 23 -12 47 -20 54 -8 6 -14 17
-14 23 0 6 -9 24 -20 41 -16 24 -20 26 -25 13z"/>
<path d="M850 2331 c0 -17 5 -33 10 -36 6 -4 10 8 10 29 0 20 -4 36 -10 36 -5
0 -10 -13 -10 -29z"/>
<path d="M1460 2293 c-149 -2 -258 -7 -264 -13 -6 -6 -31 -10 -57 -10 -110 0
-137 -72 -138 -370 -2 -208 9 -269 56 -310 60 -53 44 -52 542 -55 447 -3 521
1 521 27 0 3 14 9 30 13 39 8 68 55 35 55 -8 0 -15 -6 -15 -13 0 -32 -73 -37
-564 -37 l-484 0 -31 32 c-18 18 -34 42 -37 53 -3 11 -4 132 -2 268 l3 247 33
32 32 33 493 0 c393 0 497 -3 516 -13 26 -16 50 -2 29 16 -20 16 -166 32 -290
32 -60 0 -110 4 -113 10 -3 6 -14 9 -23 8 -9 -2 -132 -4 -272 -5z"/>
<path d="M2090 2290 c0 -5 6 -10 14 -10 8 0 18 5 21 10 3 6 -3 10 -14 10 -12
0 -21 -4 -21 -10z"/>
<path d="M2327 2248 c-3 -12 -2 -29 3 -37 7 -12 9 -6 10 22 0 42 -5 48 -13 15z"/>
<path d="M2170 2187 c0 -13 4 -27 10 -33 6 -6 11 -114 12 -263 2 -178 6 -255
14 -258 6 -2 15 4 19 14 12 29 6 535 -7 550 -18 22 -48 16 -48 -10z"/>
<path d="M527 2178 c6 -7 13 -20 16 -28 3 -9 6 -3 6 13 1 19 -4 27 -15 27 -12
0 -14 -4 -7 -12z"/>
<path d="M2609 1988 c-1 -24 0 -47 2 -53 4 -15 2 -57 -4 -82 -3 -11 1 -29 8
-40 12 -16 14 -2 14 100 0 67 -4 117 -9 117 -6 0 -11 -19 -11 -42z"/>
<path d="M863 1980 c0 -25 2 -35 4 -22 2 12 2 32 0 45 -2 12 -4 2 -4 -23z"/>
<path d="M841 1964 c0 -11 3 -14 6 -6 3 7 2 16 -1 19 -3 4 -6 -2 -5 -13z"/>
<path d="M861 1904 c0 -11 3 -14 6 -6 3 7 2 16 -1 19 -3 4 -6 -2 -5 -13z"/>
<path d="M2609 1788 c-6 -15 -5 -69 2 -74 5 -3 6 2 3 10 -3 9 -1 16 5 16 6 0
11 11 11 25 0 14 -4 25 -10 25 -5 0 -10 -1 -11 -2z"/>
<path d="M821 1744 c0 -11 3 -14 6 -6 3 7 2 16 -1 19 -3 4 -6 -2 -5 -13z"/>
<path d="M1490 1690 c0 -5 5 -10 10 -10 6 0 10 5 10 10 0 6 -4 10 -10 10 -5 0
-10 -4 -10 -10z"/>
<path d="M2611 1653 c0 -21 -1 -52 -3 -69 -3 -22 0 -30 8 -27 15 5 18 133 4
133 -5 0 -9 -17 -9 -37z"/>
<path d="M2614 1528 c-11 -17 -7 -109 4 -120 7 -7 11 13 11 61 0 72 -2 80 -15
59z"/>
<path d="M822 1510 c0 -14 2 -19 5 -12 2 6 2 18 0 25 -3 6 -5 1 -5 -13z"/>
<path d="M1537 1419 c-89 -31 -96 -36 -157 -100 -67 -70 -95 -149 -93 -263 1
-118 28 -191 94 -262 66 -69 135 -105 214 -112 54 -4 70 -1 121 24 33 15 71
27 85 25 20 -1 32 6 48 28 15 20 27 28 40 24 16 -4 21 2 27 33 4 20 17 53 30
72 13 19 24 47 24 63 0 15 8 35 17 45 19 19 26 71 12 80 -5 3 -9 18 -9 34 0
28 -48 147 -72 176 -7 9 -25 29 -40 45 -16 15 -28 33 -28 38 0 17 -20 23 -34
12 -11 -9 -14 -8 -12 5 1 13 -8 18 -34 21 -36 3 -54 6 -80 15 -76 25 -75 25
-153 -3z m192 -43 c16 -9 37 -16 46 -16 8 0 15 -4 15 -10 0 -5 7 -10 15 -10 8
0 21 -13 30 -30 9 -16 22 -30 30 -30 8 0 15 -7 15 -14 0 -8 11 -36 25 -63 23
-42 26 -58 24 -141 -2 -131 -14 -176 -54 -209 -18 -16 -40 -42 -49 -60 -14
-29 -19 -31 -41 -23 -17 7 -34 5 -57 -6 -20 -9 -24 -13 -10 -10 33 6 27 -2
-14 -19 -51 -21 -74 -19 -74 5 0 26 -26 26 -40 0 -8 -16 -17 -19 -38 -14 -46
12 -125 82 -172 153 -34 50 -36 63 -16 83 19 20 15 67 -11 108 -18 29 -20 42
-13 80 5 28 16 50 29 59 12 7 21 22 21 34 0 55 90 134 167 146 58 10 140 3
172 -13z"/>
<path d="M1525 1250 c3 -5 8 -10 11 -10 2 0 4 5 4 10 0 6 -5 10 -11 10 -5 0
-7 -4 -4 -10z"/>
<path d="M1495 1231 c-6 -11 9 -23 19 -14 9 9 7 23 -3 23 -6 0 -12 -4 -16 -9z"/>
<path d="M1420 1170 c0 -5 5 -10 10 -10 6 0 10 5 10 10 0 6 -4 10 -10 10 -5 0
-10 -4 -10 -10z"/>
<path d="M1455 1060 c3 -5 10 -10 16 -10 5 0 9 5 9 10 0 6 -7 10 -16 10 -8 0
-12 -4 -9 -10z"/>
<path d="M1817 1038 c7 -49 18 -53 18 -7 0 23 -4 39 -11 39 -8 0 -11 -11 -7
-32z"/>
<path d="M1415 918 c15 -75 21 -82 42 -49 16 26 -4 81 -30 81 -16 0 -18 -5
-12 -32z"/>
<path d="M1555 897 c-23 -17 -12 -37 21 -37 25 0 28 7 18 34 -7 20 -15 20 -39
3z"/>
<path d="M2611 1376 c-9 -10 -8 -16 4 -26 13 -11 15 -8 15 14 0 30 -3 32 -19
12z"/>
<path d="M412 1355 c0 -16 2 -22 5 -12 2 9 2 23 0 30 -3 6 -5 -1 -5 -18z"/>
<path d="M2609 1325 c0 -3 -1 -30 -1 -60 0 -74 1 -77 11 -70 12 7 11 135 0
135 -5 0 -9 -2 -10 -5z"/>
<path d="M820 1203 c0 -24 5 -43 10 -43 13 0 13 50 0 70 -7 11 -10 4 -10 -27z"/>
<path d="M2612 1165 c4 -4 4 -13 -1 -19 -6 -7 -4 -18 5 -30 13 -19 14 -18 14
11 0 18 -6 35 -12 39 -7 4 -10 4 -6 -1z"/>
<path d="M2607 1083 c-9 -8 -9 -46 -1 -68 5 -13 8 -14 15 -3 12 19 11 58 -2
58 -5 0 -7 5 -4 10 7 11 2 13 -8 3z"/>
<path d="M408 1040 c-3 -16 -1 -30 4 -30 4 0 8 14 8 30 0 17 -2 30 -4 30 -2 0
-6 -13 -8 -30z"/>
<path d="M516 791 c-16 -17 -16 -19 5 -24 29 -8 38 -1 32 23 -7 25 -15 25 -37
1z"/>
<path d="M2190 657 c8 -7 21 -19 28 -27 10 -12 12 -9 12 13 0 23 -4 27 -27 27
-24 -1 -26 -3 -13 -13z"/>
<path d="M891 608 c-1 -27 3 -38 13 -38 22 0 31 22 14 34 -8 6 -17 18 -21 26
-3 8 -6 -2 -6 -22z"/>
<path d="M1337 573 c-4 -3 -7 -28 -7 -54 0 -55 12 -64 74 -49 21 4 44 6 51 4
7 -3 15 5 19 18 l7 23 11 -22 c12 -25 23 -29 33 -13 5 8 11 8 20 0 9 -8 14 -6
19 6 6 15 8 15 26 -1 25 -22 39 -11 22 16 -8 13 -11 33 -6 52 l6 32 -21 -19
c-11 -11 -21 -14 -21 -8 0 7 -6 12 -14 12 -10 0 -16 -13 -19 -37 l-4 -38 -1
38 c-2 34 -22 55 -22 22 0 -20 -10 -19 -25 2 -7 10 -27 18 -44 19 -29 2 -31 0
-31 -36 0 -41 -6 -51 -26 -43 -9 3 -14 20 -14 44 0 37 -15 51 -33 32z"/>
<path d="M1637 573 c-10 -10 -8 -43 2 -43 6 0 13 4 16 10 3 5 20 7 37 3 27 -5
30 -4 25 11 -4 10 -7 20 -7 22 0 7 -66 5 -73 -3z"/>
<path d="M1730 570 c0 -6 7 -13 15 -16 12 -5 12 -9 0 -28 -13 -19 -23 -22 -65
-20 -52 2 -65 -11 -35 -36 11 -9 22 -9 46 -1 22 7 36 8 44 1 9 -7 21 -7 40 0
20 7 31 8 39 0 12 -12 53 -13 60 -2 6 11 -5 28 -24 35 -12 4 -11 6 3 6 9 1 17
7 17 15 0 8 -8 17 -17 19 -17 4 -17 5 0 6 9 0 17 8 17 16 0 19 -56 21 -64 3
-5 -10 -7 -10 -12 0 -7 14 -64 16 -64 2z m80 -50 c0 -22 -5 -30 -18 -30 -28 0
-32 10 -15 36 21 32 33 30 33 -6z"/>
<path d="M1660 525 c0 -16 16 -20 24 -6 3 5 -1 11 -9 15 -9 3 -15 0 -15 -9z"/>
<path d="M957 523 c-16 -15 -5 -23 31 -22 21 1 29 3 17 6 -11 3 -25 9 -31 14
-6 5 -14 6 -17 2z"/>
<path d="M480 460 c0 -5 7 -10 15 -10 8 0 15 5 15 10 0 6 -7 10 -15 10 -8 0
-15 -4 -15 -10z"/>
<path d="M2085 420 c-13 -6 -15 -9 -5 -9 8 0 22 4 30 9 18 12 2 12 -25 0z"/>
<path d="M2120 400 c0 -6 -14 -9 -31 -8 -19 2 -34 -2 -36 -9 -6 -16 53 -18 62
-3 3 6 15 10 26 10 11 0 17 5 14 10 -8 13 -35 13 -35 0z"/>
<path d="M1210 370 c20 -13 40 -13 40 0 0 6 -12 10 -27 10 -22 0 -25 -2 -13
-10z"/>
<path d="M1970 371 c0 -15 39 -19 51 -5 9 11 6 14 -20 14 -17 0 -31 -4 -31 -9z"/>
<path d="M1295 360 c3 -5 19 -10 36 -10 16 0 29 5 29 10 0 6 -16 10 -36 10
-21 0 -33 -4 -29 -10z"/>
<path d="M1755 360 c-55 -4 -161 -6 -235 -4 -112 3 -129 2 -100 -8 62 -20 505
-7 527 16 7 7 -50 6 -192 -4z"/>
</g>
</svg>
